<svg xmlns="http://www.w3.org/2000/svg" x="0" y="0" viewBox="0 0 1000 784.4" style="enable-background:new 0 0 1000 784.4" xml:space="preserve"><style>.st1{fill:#f774b6}</style><path d="m254.2 320.5 125-114.7-21.1-23-150 137.7h-.1" style="fill:#f89c4d"/><path class="st1" d="M793 320.5 643 182.9l-21.1 23 125 114.6M612.5 485.6H705M476.5 351.6h48M296 485.6h92.5"/><linearGradient id="SVGID_1_" gradientUnits="userSpaceOnUse" x1="369.526" y1="771.904" x2="676.624" y2="354.841" gradientTransform="matrix(1 0 0 -1 0 784.316)"><stop offset="0" style="stop-color:#41d1ff"/><stop offset="1" style="stop-color:#bd34fe"/></linearGradient><path d="M761.9 147.8 515.2 589c-5.1 9.1-18.2 9.2-23.4.1L240.2 147.8c-5.6-9.9 2.8-21.8 14-19.8l247 44.2c1.6.3 3.2.3 4.8 0L747.8 128c11.1-2 19.6 9.9 14.1 19.8z" style="fill:url(#SVGID_1_)"/><g><g transform="translate(500 359.485)"><linearGradient id="SVGID_2_" gradientUnits="userSpaceOnUse" x1="-247.034" y1="-116.904" x2="238.42" y2="163.373"><stop offset="0" style="stop-color:#f89c4b"/><stop offset="1" style="stop-color:#f774b6"/></linearGradient><path d="M-291.9-39h-.1v90.7c0 41 39.5 74.4 88 74.4h92.5c48.5 0 88-33.4 88-74.4V-7.9h48v59.6c0 41 39.5 74.4 88 74.4H205c48.5 0 88-33.4 88-74.4V-39" style="fill:url(#SVGID_2_)"/><linearGradient id="SVGID_3_" gradientUnits="userSpaceOnUse" x1="-184.238" y1="-145.65" x2="185.287" y2="67.695"><stop offset="0" style="stop-color:#f89c4b"/><stop offset="1" style="stop-color:#f774b6"/></linearGradient><path d="M246.9-39h-492.7" style="fill:url(#SVGID_3_)"/></g></g><linearGradient id="SVGID_4_" gradientUnits="userSpaceOnUse" x1="498.573" y1="743.9" x2="547.437" y2="408.698" gradientTransform="matrix(1 0 0 -1 0 784.316)"><stop offset="0" style="stop-color:#ffea83"/><stop offset=".083" style="stop-color:#ffdd35"/><stop offset="1" style="stop-color:#ffa800"/></linearGradient><path d="M590.5 35.4 429.9 66.8c-2.6.5-4.6 2.8-4.8 5.4l-9.9 166.9c-.2 3.9 3.4 7 7.2 6.1l44.7-10.3c4.2-1 8 2.7 7.1 6.9L461 306.9c-.9 4.4 3.2 8.1 7.5 6.8l27.6-8.4c4.3-1.3 8.4 2.5 7.5 6.8l-21.1 102.2c-1.3 6.4 7.2 9.9 10.7 4.4l2.4-3.7 130.9-261.2c2.2-4.4-1.6-9.4-6.4-8.4l-46 8.9c-4.3.8-8-3.2-6.8-7.4l30-104.1c1.2-4.2-2.5-8.3-6.8-7.4z" style="fill:url(#SVGID_4_)"/><path d="M259.6 654.2c4 0 7.3 1.4 10.1 4.2 2.8 2.8 4.2 6.2 4.2 10.1v49.6h-50.7c-4 0-7.3-1.4-10.1-4.2-2.8-2.8-4.2-6.2-4.2-10.1v-23.6H262v-11.7c0-.7-.2-1.2-.7-1.7s-1-.7-1.7-.7h-50.7v-11.9h50.7zm2.4 52v-14.1h-41.2v11.7c0 .7.2 1.2.7 1.7s1 .7 1.7.7H262zm114.7-52h12.7l-24 63.9h-9.7l-21.5-47.5-20.3 47.5-.2-.1.1.1h-9.6l-25.1-63.9h12.6l17.3 42.4 18.4-42.4H341l19.5 42.4 16.2-42.4zm67.2 0c4 0 7.3 1.4 10.1 4.2 2.8 2.8 4.2 6.2 4.2 10.1v23.6h-53.1v11.7c0 .7.2 1.2.7 1.7s1 .7 1.7.7h50.7v11.9h-50.7c-4 0-7.3-1.4-10.1-4.2-2.8-2.8-4.2-6.2-4.2-10.1v-35.3c0-4 1.4-7.3 4.2-10.1 2.8-2.8 6.2-4.2 10.1-4.2h36.4zm-38.8 26h41.2v-11.7c0-.7-.2-1.2-.7-1.7s-1-.7-1.7-.7h-36.4c-.7 0-1.2.2-1.7.7s-.7 1-.7 1.7v11.7zm129-11.6v2.4h-11.9v-2.4c0-.7-.2-1.2-.7-1.7s-1-.7-1.7-.7h-36.4c-.7 0-1.2.2-1.7.7s-.7 1-.7 1.7v9.3c0 .7.2 1.2.7 1.7s1 .7 1.7.7h36.4c4 0 7.3 1.4 10.1 4.2 2.8 2.8 4.2 6.2 4.2 10.1v9.3c0 4-1.4 7.3-4.2 10.1-2.8 2.8-6.2 4.2-10.1 4.2h-36.4c-4 0-7.3-1.4-10.1-4.2-2.8-2.8-4.2-6.2-4.2-10.1v-2.4H481v2.4c0 .7.2 1.2.7 1.7s1 .7 1.7.7h36.4c.7 0 1.2-.2 1.7-.7s.7-1 .7-1.7v-9.3c0-.7-.2-1.2-.7-1.7s-1-.7-1.7-.7h-36.4c-4 0-7.3-1.4-10.1-4.2-2.8-2.8-4.2-6.2-4.2-10.1v-9.3c0-4 1.4-7.3 4.2-10.1 2.8-2.8 6.2-4.2 10.1-4.2h36.4c4 0 7.3 1.4 10.1 4.2 2.8 2.7 4.2 6.1 4.2 10.1zm25.2-14.4h36.4c4 0 7.3 1.4 10.1 4.2 2.8 2.8 4.2 6.2 4.2 10.1v35.3c0 4-1.4 7.3-4.2 10.1s-6.2 4.2-10.1 4.2h-36.4c-4 0-7.3-1.4-10.1-4.2-2.8-2.8-4.2-6.2-4.2-10.1v-35.3c0-4 1.4-7.3 4.2-10.1 2.8-2.8 6.2-4.2 10.1-4.2zm36.4 11.9h-36.4c-.7 0-1.2.2-1.7.7s-.7 1-.7 1.7v35.3c0 .7.2 1.2.7 1.7s1 .7 1.7.7h36.4c.7 0 1.2-.2 1.7-.7s.7-1 .7-1.7v-35.3c0-.7-.2-1.2-.7-1.7-.5-.4-1-.7-1.7-.7zm107.5-11.9c4 0 7.3 1.4 10.1 4.2s4.2 6.2 4.2 10.1v49.6h-11.8v-49.6c0-.7-.2-1.2-.7-1.7s-1.1-.7-1.8-.7H678c-.7 0-1.2.2-1.7.7s-.7 1-.7 1.7v49.6h-11.9v-49.6c0-.7-.2-1.2-.7-1.7s-1-.7-1.7-.7H636c-.7 0-1.2.2-1.7.7s-.7 1-.7 1.7v49.6h-11.9v-63.9h81.5zm76.5 0c4 0 7.3 1.4 10.1 4.2s4.2 6.2 4.2 10.1v23.6h-53.1v11.7c0 .7.2 1.2.7 1.7s1 .7 1.7.7H794v11.9h-50.7c-4 0-7.3-1.4-10.1-4.2s-4.2-6.2-4.2-10.1v-35.3c0-4 1.4-7.3 4.2-10.1s6.2-4.2 10.1-4.2h36.4zm-38.8 26h41.2v-11.7c0-.7-.2-1.2-.7-1.7s-1-.7-1.7-.7h-36.4c-.7 0-1.2.2-1.7.7s-.7 1-.7 1.7v11.7z" style="fill:#494368"/></svg>
